<?xml version="1.0" standalone="no"?>
<!DOCTYPE svg PUBLIC "-//W3C//DTD SVG 20010904//EN"
 "http://www.w3.org/TR/2001/REC-SVG-20010904/DTD/svg10.dtd">
<svg version="1.0" xmlns="http://www.w3.org/2000/svg"
 width="1600.000000pt" height="1600.000000pt" viewBox="0 0 1600.000000 1600.000000"
 preserveAspectRatio="xMidYMid meet">

<g transform="translate(0.000000,1600.000000) scale(0.100000,-0.100000)"
fill="#000000" stroke="none">
<path d="M13315 13996 c-84 -19 -126 -38 -610 -268 -236 -113 -653 -311 -925
-441 -272 -129 -772 -366 -1110 -527 -338 -161 -793 -377 -1010 -480 -217
-103 -672 -319 -1010 -480 -338 -161 -793 -377 -1010 -480 -217 -103 -672
-319 -1010 -480 -338 -161 -838 -398 -1110 -528 -272 -129 -731 -347 -1020
-484 -989 -470 -1005 -478 -1058 -521 -199 -164 -282 -444 -211 -712 11 -39
1519 -3249 1622 -3450 42 -82 66 -116 137 -186 72 -73 101 -94 180 -132 52
-25 124 -54 160 -63 87 -24 262 -24 348 -1 36 10 527 240 1125 528 584 282
1627 784 2317 1116 690 333 1260 607 1267 610 7 3 26 -24 47 -65 78 -155 229
-319 392 -424 l83 -53 0 -1045 c1 -857 4 -1062 16 -1140 86 -568 489 -950
1066 -1010 66 -6 737 -10 1935 -10 l1834 0 0 605 0 605 -1817 2 -1818 3 -2
995 -2 995 70 45 c204 130 394 376 472 610 45 136 60 234 60 385 0 164 -20
278 -77 425 -21 52 -39 102 -42 111 -4 12 302 163 1409 698 1037 500 1428 694
1465 724 210 174 292 482 198 746 -33 93 -1649 3472 -1685 3525 -70 101 -195
190 -331 236 -83 28 -258 36 -345 16z"/>
<path d="M258 7671 c-56 -35 -93 -104 -85 -156 9 -58 2008 -4253 2042 -4286
59 -58 159 -61 221 -7 23 20 223 361 645 1100 l611 1069 -40 87 c-22 48 -239
499 -481 1002 -402 836 -443 916 -468 922 -45 12 -2303 298 -2354 298 -33 0
-58 -8 -91 -29z"/>
</g>
</svg>
