<?xml version="1.0" encoding="UTF-8"?>
<!DOCTYPE svg PUBLIC "-//W3C//DTD SVG 1.1//EN" "http://www.w3.org/Graphics/SVG/1.1/DTD/svg11.dtd">
<svg xmlns="http://www.w3.org/2000/svg" version="1.1" width="32px" height="32px" style="shape-rendering:geometricPrecision; text-rendering:geometricPrecision; image-rendering:optimizeQuality; fill-rule:evenodd; clip-rule:evenodd" xmlns:xlink="http://www.w3.org/1999/xlink">
<g><path style="opacity:0.873" fill="#ffbb0d" d="M 9.5,-0.5 C 10.1667,-0.5 10.8333,-0.5 11.5,-0.5C 13.3548,1.03308 15.1881,2.69974 17,4.5C 17.4935,2.86586 17.6602,1.19919 17.5,-0.5C 18.1667,-0.5 18.8333,-0.5 19.5,-0.5C 19.7535,4.66641 21.2535,5.33307 24,1.5C 24.2022,3.2556 24.7022,4.92226 25.5,6.5C 30.0348,4.79696 30.7014,5.79696 27.5,9.5C 28.6888,10.4287 30.0222,10.762 31.5,10.5C 31.5,11.1667 31.5,11.8333 31.5,12.5C 26.5789,12.6464 26.5789,13.6464 31.5,15.5C 31.5,16.1667 31.5,16.8333 31.5,17.5C 29.8908,17.0941 28.5575,17.0941 27.5,17.5C 31.8011,24.4336 30.9677,25.1002 25,19.5C 25.9634,31.1904 24.6301,31.1904 21,19.5C 19.2087,23.4115 17.7087,27.4115 16.5,31.5C 15.8333,31.5 15.1667,31.5 14.5,31.5C 15.3369,27.1657 15.8369,22.8323 16,18.5C -1.01685,28.4491 -2.18352,27.2824 12.5,15C 8.16461,13.9842 3.83128,13.1508 -0.5,12.5C -0.5,12.1667 -0.5,11.8333 -0.5,11.5C 3.74957,10.7275 8.0829,10.2275 12.5,10C 0.558673,3.50137 1.22534,2.16804 14.5,6C 12.2345,4.24186 10.5678,2.07519 9.5,-0.5 Z"/></g>
</svg>
